<svg xmlns="http://www.w3.org/2000/svg" viewBox="0 0 64 64" width="24" height="24">
  <!-- Diamonds Icon: Light Mode -->
  <!-- Main Diamond: Green #13a438 & Navy accents -->
  <path d="m32 17-6.706 8-5.588-8z" fill="#090078" fill-opacity="0.2"/>
  <path d="m32 17 6.706 8h-13.412z" fill="#13a438"/>
  <path d="m44.294 17-5.588 8-6.706-8z" fill="#090078" fill-opacity="0.2"/>
  <path d="m44.294 17 6.706 8h-12.294z" fill="#13a438" fill-opacity="0.5"/>
  <path d="m51 25-19 25 6.706-25z" fill="#13a438"/>
  <path d="m13 25 19 25-14-25z" fill="#13a438" fill-opacity="0.5"/>

  <!-- Small Diamond Sparkles: Green #13a438 -->
  <path d="m8 7c0 3.317 2.683 6 6 6-1.663 0-3.154.669-4.243 1.757s-1.757 2.58-1.757 4.243c0-1.663-.669-3.154-1.757-4.243s-2.58-1.757-4.243-1.757c1.663 0 3.154-.669 4.243-1.757s1.757-2.58 1.757-4.243z" fill="#13a438"/>
  <path d="m56 7c0 3.317 2.683 6 6 6-1.663 0-3.154.669-4.243 1.757-1.088 1.089-1.757 2.58-1.757 4.243 0-1.663-.669-3.154-1.757-4.243-1.089-1.088-2.58-1.757-4.243-1.757 1.663 0 3.154-.669 4.243-1.757 1.088-1.089 1.757-2.58 1.757-4.243z" fill="#13a438"/>
  <path d="m34.12 11.12c-.54.54-1.29.88-2.12.88s-1.58-.34-2.12-.88-.88-1.29-.88-2.12.34-1.58.88-2.12 1.29-.88 2.12-.88 1.58.34 2.12.88.88 1.29.88 2.12-.34 1.58-.88 2.12z" fill="#13a438"/>
</svg>
