<svg xmlns="http://www.w3.org/2000/svg" viewBox="0 0 64 64" width="24" height="24">
  <!-- Money Growth Icon: Dark Mode -->
  <!-- Bar Charts: Light Grey #ECEFF4 -->
  <path d="m11 35.93v19.07h-7v-13z" fill="#ECEFF4" fill-opacity="0.5"/>
  <path d="m18 29.87v25.13h-7v-19.07z" fill="#ECEFF4"/>
  <path d="m25 33.2v21.8h-7v-25.13l1-.87z" fill="#ECEFF4" fill-opacity="0.5"/>
  <path d="m32 33.19v21.81h-7v-21.8l4 2.8z" fill="#ECEFF4"/>
  <path d="m46 23.22v31.78h-7v-28.37l5.2-4.88c.54.55 1.14 1.05 1.8 1.47z" fill="#ECEFF4" fill-opacity="0.5"/>
  <path d="m53 24.95v30.05h-7v-31.78c1.72 1.13 3.78 1.78 6 1.78.34 0 .67-.02 1-.05z" fill="#ECEFF4"/>
  <path d="m1 55h55v6h-55z" fill="#ECEFF4"/>

  <!-- Growth Arrow: Glowing Green #4C8CFF -->
  <path d="m39 26.63-7 6.56-3 2.81-4-2.8-6-4.2-1 .87-7 6.06-7 6.07-3-5 18-15 10 7 9.58-8.63-6.24-1.26.66-4.11 8.23 1.26c.44 2.12 1.49 4.01 2.97 5.49z" fill="#4C8CFF"/>

  <!-- Coin: Glowing Green #4C8CFF -->
  <circle cx="52" cy="14" fill="#2c2f88" r="11" fill-opacity="0.5"/>
  <circle cx="52" cy="14" fill="#4C8CFF" r="7"/>
</svg>
